<?xml version="1.0" encoding="UTF-8" standalone="no"?>
<svg
   xmlns:dc="http://purl.org/dc/elements/1.1/"
   xmlns:cc="http://creativecommons.org/ns#"
   xmlns:rdf="http://www.w3.org/1999/02/22-rdf-syntax-ns#"
   xmlns:svg="http://www.w3.org/2000/svg"
   xmlns="http://www.w3.org/2000/svg"
   viewBox="0 0 280.70267 79.140533"
   height="79.140533"
   width="280.70267"
   xml:space="preserve"
   id="svg2"
   version="1.1"><metadata
     id="metadata8"><rdf:RDF><cc:Work
         rdf:about=""><dc:format>image/svg+xml</dc:format><dc:type
           rdf:resource="http://purl.org/dc/dcmitype/StillImage" /></cc:Work></rdf:RDF></metadata><defs
     id="defs6"><clipPath
       id="clipPath18"
       clipPathUnits="userSpaceOnUse"><path
         id="path16"
         d="m 12.479,0 6.115,1.736 36.095,10.363 4.375,18 z" /></clipPath><clipPath
       id="clipPath26"
       clipPathUnits="userSpaceOnUse"><path
         id="path24"
         d="m -888.05,3444.7 h 1920 v -5819 h -1920 z" /></clipPath><clipPath
       id="clipPath30"
       clipPathUnits="userSpaceOnUse"><path
         id="path28"
         d="m -888.05,-2374.297 h 1920 v 5819 h -1920 z" /></clipPath><linearGradient
       id="linearGradient36"
       gradientTransform="matrix(1,0,0,-1,12.479004,30.100586)"
       gradientUnits="userSpaceOnUse"
       y2="1024"
       x2="0"
       y1="0"
       x1="0"><stop
         id="stop32"
         offset="0"
         style="stop-opacity:1;stop-color:#e94e27" /><stop
         id="stop34"
         offset="1"
         style="stop-opacity:1;stop-color:#f28a2f" /></linearGradient><clipPath
       id="clipPath58"
       clipPathUnits="userSpaceOnUse"><path
         id="path56"
         d="m 12.479,0 6.115,1.736 36.095,10.363 4.375,18 z" /></clipPath><linearGradient
       id="linearGradient68"
       spreadMethod="pad"
       gradientTransform="matrix(1,0,0,-1,12.479004,30.100586)"
       gradientUnits="userSpaceOnUse"
       y2="15.0611"
       x2="37.621399"
       y1="15.0611"
       x1="0.00154124"><stop
         id="stop64"
         offset="0"
         style="stop-opacity:1;stop-color:#e94e27" /><stop
         id="stop66"
         offset="1"
         style="stop-opacity:1;stop-color:#f28a2f" /></linearGradient><clipPath
       id="clipPath82"
       clipPathUnits="userSpaceOnUse"><path
         id="path80"
         d="m 0,41.951 1.144,-4.315 4.275,-16.115 56.678,15.273 5.22,22.214 0.1,0.347 z" /></clipPath><clipPath
       id="clipPath90"
       clipPathUnits="userSpaceOnUse"><path
         id="path88"
         d="M -887.721,3431.77 H 1032.28 v -5819 H -887.721 Z" /></clipPath><clipPath
       id="clipPath94"
       clipPathUnits="userSpaceOnUse"><path
         id="path92"
         d="m -887.721,-2387.229 h 1920 v 5819 h -1920 z" /></clipPath><linearGradient
       id="linearGradient100"
       gradientTransform="matrix(1,0,0,-1,0.328125,46.423828)"
       gradientUnits="userSpaceOnUse"
       y2="1024"
       x2="0"
       y1="0"
       x1="0"><stop
         id="stop96"
         offset="0"
         style="stop-opacity:1;stop-color:#f28a2f" /><stop
         id="stop98"
         offset="1"
         style="stop-opacity:1;stop-color:#e94e27" /></linearGradient><clipPath
       id="clipPath122"
       clipPathUnits="userSpaceOnUse"><path
         id="path120"
         d="m 0,41.951 1.144,-4.315 4.275,-16.115 56.678,15.273 5.22,22.214 0.1,0.347 z" /></clipPath><linearGradient
       id="linearGradient132"
       spreadMethod="pad"
       gradientTransform="matrix(1,0,0,-1,0.328125,46.423828)"
       gradientUnits="userSpaceOnUse"
       y2="18.9209"
       x2="67.415497"
       y1="18.9209"
       x1="38.514702"><stop
         id="stop128"
         offset="0"
         style="stop-opacity:1;stop-color:#f28a2f" /><stop
         id="stop130"
         offset="1"
         style="stop-opacity:1;stop-color:#e94e27" /></linearGradient><clipPath
       id="clipPath150"
       clipPathUnits="userSpaceOnUse"><path
         id="path148"
         d="M 0,59.355 H 210.527 V 0 H 0 Z" /></clipPath></defs><g
     transform="matrix(1.3333333,0,0,-1.3333333,0,79.140533)"
     id="g10"><g
       id="g12"><g
         clip-path="url(#clipPath18)"
         id="g14"><g
           id="g20"><g
             id="g22" /><g
             id="g50"><g
               style="opacity:0"
               id="g48"
               clip-path="url(#clipPath26)"><g
                 id="g46"><g
                   id="g44"
                   clip-path="url(#clipPath30)"><g
                     id="g42"><g
                       id="g40"><path
                         id="path38"
                         style="fill:url(#linearGradient36);stroke:none"
                         d="m -888.05,-2374.297 h 1920 v 5819 h -1920 z" /></g></g></g></g></g></g></g></g></g><g
       id="g52"><g
         clip-path="url(#clipPath58)"
         id="g54"><g
           id="g60"><g
             id="g62"><path
               id="path70"
               style="fill:url(#linearGradient68);stroke:none"
               d="m 12.479,0 6.115,1.736 36.095,10.363 4.375,18 z" /></g></g></g></g><g
       transform="translate(33.5095,13.5868)"
       id="g72"><path
         id="path74"
         style="fill:#e84e27;fill-opacity:1;fill-rule:nonzero;stroke:none"
         d="M 0,0 -28.09,7.934 13.872,19.19 25.555,16.512 Z" /></g><g
       id="g76"><g
         clip-path="url(#clipPath82)"
         id="g78"><g
           id="g84"><g
             id="g86" /><g
             id="g114"><g
               style="opacity:0"
               id="g112"
               clip-path="url(#clipPath90)"><g
                 id="g110"><g
                   id="g108"
                   clip-path="url(#clipPath94)"><g
                     id="g106"><g
                       id="g104"><path
                         id="path102"
                         style="fill:url(#linearGradient100);stroke:none"
                         d="m -887.721,-2387.229 h 1920 v 5819 h -1920 z" /></g></g></g></g></g></g></g></g></g><g
       id="g116"><g
         clip-path="url(#clipPath122)"
         id="g118"><g
           id="g124"><g
             id="g126"><path
               id="path134"
               style="fill:url(#linearGradient132);stroke:none"
               d="m 0,41.951 1.144,-4.315 4.275,-16.115 56.678,15.273 5.22,22.214 0.1,0.347 z" /></g></g></g></g><g
       transform="translate(67.4172,59.355)"
       id="g136"><path
         id="path138"
         style="fill:#f39a4a;fill-opacity:1;fill-rule:nonzero;stroke:none"
         d="m 0,0 -67.417,-17.404 1.144,-4.315 66.173,21.373 z" /></g><g
       transform="translate(12.4794)"
       id="g140"><path
         id="path142"
         style="fill:#f39850;fill-opacity:1;fill-rule:nonzero;stroke:none"
         d="m 0,0 6.115,1.736 40.47,28.363 z" /></g><g
       id="g144"><g
         clip-path="url(#clipPath150)"
         id="g146"><g
           transform="translate(79.8835,40.4315)"
           id="g152"><path
             id="path154"
             style="fill:#ffffff;fill-opacity:1;fill-rule:nonzero;stroke:none"
             d="m 0,0 c -1.615,0 -3.499,0.335 -5.584,2.147 l -2.96,-3.422 C -5.651,-4.093 -3.499,-4.63 0,-4.63 c 4.239,0 8.074,1.677 8.343,5.972 0.269,4.429 -3.97,5.905 -7.738,6.307 -1.883,0.202 -3.296,0.336 -3.162,1.678 0.135,1.006 1.346,1.342 2.624,1.342 1.615,0 3.162,-0.336 4.373,-1.208 l 2.692,3.422 C 5.113,14.494 2.893,15.098 0,15.098 -4.037,15.098 -7.737,13.42 -8.006,9.394 -8.275,4.965 -4.373,3.624 -0.202,3.221 1.884,3.02 3.028,2.416 2.96,1.476 2.893,0.537 1.75,0 0,0" /></g><g
           transform="translate(99.3942,40.3642)"
           id="g156"><path
             id="path158"
             style="fill:#ffffff;fill-opacity:1;fill-rule:nonzero;stroke:none"
             d="m 0,0 c -0.403,-0.335 -1.009,-0.47 -1.48,-0.47 -0.74,0 -1.345,0.403 -1.345,1.343 V 5.234 H 0.27 v 3.825 h -3.028 v 3.892 L -7.737,12.414 V 9.059 H -9.89 V 5.234 h 2.153 V 0.873 c 0,-4.362 2.288,-5.436 4.979,-5.436 1.413,0 2.691,0.202 3.902,0.873 z" /></g><g
           transform="translate(109.0827,45.7323)"
           id="g160"><path
             id="path162"
             style="fill:#ffffff;fill-opacity:1;fill-rule:nonzero;stroke:none"
             d="m 0,0 c 1.749,0 2.624,-1.409 2.624,-2.952 0,-1.611 -0.875,-2.953 -2.624,-2.886 -1.816,0 -2.624,1.409 -2.624,2.886 C -2.624,-1.476 -1.75,0 0,0 m 0,-9.931 c 3.768,0 7.535,2.08 7.535,6.979 0,4.898 -3.498,7.045 -7.535,7.113 -3.835,0 -7.468,-2.081 -7.468,-7.113 0,-4.899 3.633,-6.979 7.468,-6.979" /></g><g
           transform="translate(123.9514,43.0482)"
           id="g164"><path
             id="path166"
             style="fill:#ffffff;fill-opacity:1;fill-rule:nonzero;stroke:none"
             d="m 0,0 c 0,1.678 1.278,2.617 2.624,2.617 0.74,0 1.413,-0.268 2.018,-0.738 L 6.728,5.368 C 5.853,6.308 4.709,6.777 3.296,6.777 2.018,6.777 0.605,6.241 -0.202,4.966 L -0.539,6.442 H -5.046 V -6.979 H 0 Z" /></g><g
           transform="translate(140.3,43.518)"
           id="g168"><path
             id="path170"
             style="fill:#ffffff;fill-opacity:1;fill-rule:nonzero;stroke:none"
             d="m 0,0 v -7.448 h 4.911 v 7.381 c 0,1.476 0.875,2.013 1.75,2.013 0.74,0 1.345,-0.604 1.345,-2.013 v -7.448 h 5.046 v 7.448 c 0,4.563 -2.22,6.308 -5.18,6.308 C 5.988,6.241 4.508,5.771 3.364,4.362 2.691,5.637 1.346,6.241 0,6.241 c -1.413,0 -2.826,-0.537 -3.7,-1.745 l -0.404,1.476 h -4.239 v -13.42 h 4.979 v 7.381 c 0,1.544 0.875,2.147 1.749,2.147 C 0.134,2.08 0,0 0,0" /></g><g
           transform="translate(78.2101,25.536)"
           id="g172"><path
             id="path174"
             style="fill:#ffffff;fill-opacity:1;fill-rule:nonzero;stroke:none"
             d="m 0,0 c -1.65,0.176 -2.888,0.294 -2.77,1.469 0.118,0.882 1.179,1.176 2.299,1.176 1.473,0 2.828,-0.353 3.83,-1.058 l 2.358,2.997 c -1.768,1.411 -3.713,1.94 -6.247,1.94 -3.536,0 -6.778,-1.469 -7.013,-4.996 -0.236,-3.879 3.182,-5.055 6.836,-5.407 1.827,-0.177 2.829,-0.705 2.77,-1.529 -0.059,-0.822 -1.061,-1.293 -2.593,-1.293 -1.415,0 -3.065,0.294 -4.891,1.881 l -2.594,-2.997 c 2.535,-2.469 4.42,-2.939 7.485,-2.939 3.713,0 7.072,1.469 7.307,5.231 C 7.013,-1.646 3.3,-0.353 0,0" /></g><g
           transform="translate(93.5915,18.3651)"
           id="g176"><path
             id="path178"
             style="fill:#ffffff;fill-opacity:1;fill-rule:nonzero;stroke:none"
             d="m 0,0 c -0.648,0 -1.179,0.353 -1.179,1.176 v 3.82 h 2.711 v 3.35 H -1.12 v 3.409 l -4.36,-0.47 V 8.346 h -1.886 v -3.35 h 1.886 v -3.82 c 0,-3.821 2.003,-4.761 4.36,-4.761 1.238,0 2.358,0.176 3.418,0.764 L 1.297,0.412 C 0.943,0.118 0.413,0 0,0" /></g><g
           transform="translate(101.7243,25.4774)"
           id="g180"><path
             id="path182"
             style="fill:#ffffff;fill-opacity:1;fill-rule:nonzero;stroke:none"
             d="m 0,0 -0.236,1.293 h -3.948 v -11.755 h 4.361 v 6.112 c 0,1.47 1.119,2.293 2.298,2.293 0.649,0 1.238,-0.235 1.768,-0.647 L 6.07,0.353 C 5.304,1.175 4.302,1.587 3.064,1.587 1.945,1.587 0.707,1.117 0,0" /></g><g
           transform="translate(112.8034,22.4794)"
           id="g184"><path
             id="path186"
             style="fill:#ffffff;fill-opacity:1;fill-rule:nonzero;stroke:none"
             d="m 0,0 c 0.118,0.941 1.179,1.411 2.181,1.411 1.06,0 2.062,-0.47 2.121,-1.411 z m 2.063,4.585 c -3.183,0 -6.542,-1.94 -6.542,-6.231 0,-4.291 3.183,-6.112 6.896,-6.112 2.003,0 3.948,0.588 5.362,1.939 l -2.18,2.41 c -0.707,-0.588 -1.709,-0.94 -3.006,-0.94 -1.002,0 -2.298,0.47 -2.652,1.528 h 8.251 c 0.177,0.588 0.236,1.234 0.236,1.763 0,3.586 -2.711,5.643 -6.365,5.643" /></g><g
           transform="translate(129.3049,18.3065)"
           id="g188"><path
             id="path190"
             style="fill:#ffffff;fill-opacity:1;fill-rule:nonzero;stroke:none"
             d="m 0,0 c -1.297,0 -2.357,0.94 -2.357,2.586 0,1.646 1.06,2.586 2.357,2.586 1.532,0 2.416,-0.999 2.416,-2.586 C 2.416,1.175 1.473,0 0,0 m 2.416,7.288 c -0.648,0.941 -1.768,1.528 -3.477,1.528 -3.713,0 -5.716,-2.703 -5.716,-6.171 0,-3.409 2.062,-6.172 5.422,-6.172 1.355,0 2.887,0.353 3.889,1.528 L 2.77,-3.292 H 6.836 V 8.464 8.582 H 2.652 Z" /></g><g
           transform="translate(162.3068,32.1781)"
           id="g192"><path
             id="path194"
             style="fill:#ffffff;fill-opacity:1;fill-rule:nonzero;stroke:none"
             d="m 0,0 c -1.238,0 -2.475,-0.764 -2.475,-2.175 0,-1.411 1.237,-2.175 2.475,-2.175 1.237,0 2.475,0.764 2.475,2.175 C 2.475,-0.764 1.237,0 0,0" /></g><path
           id="path196"
           style="fill:#ffffff;fill-opacity:1;fill-rule:nonzero;stroke:none"
           d="m 160.126,15.015 h 4.42 V 26.77 h -4.42 z" /><g
           transform="translate(175.0363,27.0053)"
           id="g198"><path
             id="path200"
             style="fill:#ffffff;fill-opacity:1;fill-rule:nonzero;stroke:none"
             d="m 0,0 c -1.238,0 -2.711,-0.411 -3.713,-1.587 l -0.177,1.293 h -3.889 v -11.755 h 4.361 v 6.23 c 0,1.587 1.001,2.293 2.063,2.293 0.824,0 1.649,-0.471 1.649,-1.94 v -6.642 h 4.303 v 6.642 C 4.597,-1.234 2.534,0 0,0" /></g><g
           transform="translate(188.237,18.8354)"
           id="g202"><path
             id="path204"
             style="fill:#ffffff;fill-opacity:1;fill-rule:nonzero;stroke:none"
             d="m 0,0 c -1.296,0 -2.298,0.999 -2.298,2.292 0,1.352 0.943,2.352 2.298,2.293 1.297,0 2.239,-1 2.239,-2.293 C 2.239,0.999 1.297,0 0,0 M 3.713,9.463 2.416,7.817 C 1.591,8.111 0.766,8.229 0,8.229 c -3.654,0 -6.542,-2.351 -6.542,-5.937 0,-3.644 2.594,-5.936 6.542,-5.936 1.591,0 2.122,-0.706 2.122,-1.587 0,-1.117 -1.061,-1.646 -2.181,-1.646 -1.178,0 -2.298,0.412 -2.239,2.233 h -4.125 c -0.236,-3.644 2.18,-5.936 6.364,-5.936 3.595,0 6.66,1.528 6.66,5.231 0,0.705 -0.119,2.41 -2.299,3.703 1.356,0.882 2.18,2.41 2.18,3.938 0,1.059 -0.235,2.058 -1.119,3.057 l 1.532,1.822 z" /></g><g
           transform="translate(196.3508,32.6357)"
           id="g206"><path
             id="path208"
             style="fill:#ffffff;fill-opacity:1;fill-rule:nonzero;stroke:none"
             d="M 0,0 H 2.03 V -4.852 H 4.021 V 0 h 2.03 V 1.591 H 0 Z" /></g><g
           transform="translate(207.9108,34.2265)"
           id="g210"><path
             id="path212"
             style="fill:#ffffff;fill-opacity:1;fill-rule:nonzero;stroke:none"
             d="M 0,0 -1.002,-3.92 -2.012,0 H -4.63 V -6.442 H -3 v 4.913 l 1.254,-4.913 h 1.476 l 1.256,4.913 V -6.442 H 2.617 V 0 Z" /></g><g
           transform="translate(153.1135,27.0053)"
           id="g214"><path
             id="path216"
             style="fill:#ffffff;fill-opacity:1;fill-rule:nonzero;stroke:none"
             d="M 0,0 C -1.65,0 -2.947,-0.411 -3.949,-1.646 -4.538,-0.529 -5.717,0 -6.895,0 -8.133,0 -9.37,-0.47 -10.137,-1.528 l -0.353,1.293 h -3.713 V -11.99 h 4.361 v 6.465 c 0,1.352 0.766,1.881 1.532,1.881 0.767,0 1.238,-0.47 1.238,-1.822 h 0.177 v -6.524 h 4.302 v 6.465 c 0,1.293 0.766,1.763 1.532,1.763 0.648,0 1.179,-0.529 1.179,-1.763 v -6.524 h 4.42 v 6.524 C 4.538,-1.528 2.593,0 0,0" /></g></g></g></g></svg>